<?xml version="1.0" encoding="UTF-8" standalone="no"?>
<!DOCTYPE svg PUBLIC "-//W3C//DTD SVG 1.1//EN" "http://www.w3.org/Graphics/SVG/1.1/DTD/svg11.dtd">
<svg width="100%" height="100%" viewBox="0 0 418 417" version="1.1" xmlns="http://www.w3.org/2000/svg" xmlns:xlink="http://www.w3.org/1999/xlink" xml:space="preserve" xmlns:serif="http://www.serif.com/" style="fill-rule:evenodd;clip-rule:evenodd;stroke-linejoin:round;stroke-miterlimit:2;">
    <g transform="matrix(1,0,0,1,-916,0)">
        <g id="Auto" transform="matrix(1,0,0,1,916.667,0)">
            <rect x="0" y="0" width="416.667" height="416.667" style="fill:none;"/>
            <g transform="matrix(2,0,0,1.45902,-1833.33,0)">
                <path d="M1020.83,0C1078.32,0 1125,63.982 1125,142.79C1125,221.598 1078.32,285.58 1020.83,285.58C963.342,285.58 916.667,221.598 916.667,142.79C916.667,63.982 963.342,0 1020.83,0ZM1022.96,21.453C1022.4,21.438 1021.86,21.732 1021.46,22.268C1021.06,22.805 1020.84,23.538 1020.84,24.304C1020.83,49.77 1020.83,235.81 1020.83,261.276C1020.83,262.043 1021.06,262.778 1021.46,263.315C1021.86,263.852 1022.4,264.146 1022.96,264.132C1070.85,262.58 1109.38,208.804 1109.38,142.79C1109.38,76.776 1070.85,23.001 1022.96,21.453Z"/>
            </g>
        </g>
    </g>
</svg>
