<?xml version="1.0" encoding="UTF-8" standalone="no"?>
<!DOCTYPE svg PUBLIC "-//W3C//DTD SVG 1.1//EN" "http://www.w3.org/Graphics/SVG/1.1/DTD/svg11.dtd">
<svg width="100%" height="100%" viewBox="0 0 417 417" version="1.1" xmlns="http://www.w3.org/2000/svg" xmlns:xlink="http://www.w3.org/1999/xlink" xml:space="preserve" xmlns:serif="http://www.serif.com/" style="fill-rule:evenodd;clip-rule:evenodd;stroke-linejoin:round;stroke-miterlimit:2;">
    <g transform="matrix(1,0,0,1,-458,0)">
        <g id="Moon" transform="matrix(1,0,0,1,458.333,0)">
            <rect x="0" y="0" width="416.667" height="416.667" style="fill:none;"/>
            <clipPath id="_clip1">
                <rect x="0" y="0" width="416.667" height="416.667"/>
            </clipPath>
            <g clip-path="url(#_clip1)">
                <g transform="matrix(1.42111,0,0,1.38316,-712.903,-42.3232)">
                    <path d="M787.854,159.592C788.35,158.341 789.599,157.587 790.904,157.752C792.208,157.916 793.244,158.958 793.43,160.295C794.372,167.133 794.851,174.119 794.851,181.22C794.851,264.35 729.162,331.841 648.252,331.841C567.342,331.841 501.653,264.35 501.653,181.22C501.653,98.09 567.342,30.599 648.252,30.599C655.163,30.599 661.963,31.091 668.621,32.044C669.928,32.237 670.947,33.306 671.108,34.653C671.269,35.999 670.531,37.29 669.309,37.802C636.631,51.854 613.655,85.033 613.655,123.683C613.655,175.057 654.251,216.767 704.253,216.767C741.871,216.767 774.164,193.16 787.854,159.592Z"/>
                </g>
            </g>
        </g>
    </g>
</svg>
