<?xml version="1.0" encoding="UTF-8" standalone="no"?>
<!DOCTYPE svg PUBLIC "-//W3C//DTD SVG 1.1//EN" "http://www.w3.org/Graphics/SVG/1.1/DTD/svg11.dtd">
<svg width="100%" height="100%" viewBox="0 0 417 417" version="1.1" xmlns="http://www.w3.org/2000/svg" xmlns:xlink="http://www.w3.org/1999/xlink" xml:space="preserve" xmlns:serif="http://www.serif.com/" style="fill-rule:evenodd;clip-rule:evenodd;stroke-linejoin:round;stroke-miterlimit:2;">
    <rect id="Sun" x="0" y="0" width="416.667" height="416.667" style="fill:none;"/>
    <g id="Sun1" serif:id="Sun">
        <g transform="matrix(0.5,-0.5,0.5,0.5,7.30741e-14,208.333)">
            <path d="M-4.315,126.354C-1.552,123.591 0,119.844 0,115.937L-0,14.731C0,6.595 6.595,0 14.731,-0L115.937,-0C119.844,0 123.591,-1.552 126.354,-4.315L197.917,-75.878C203.67,-81.631 212.997,-81.631 218.75,-75.878L290.313,-4.315C293.076,-1.552 296.823,0 300.73,0L401.935,-0C410.071,0 416.667,6.595 416.667,14.731L416.667,115.937C416.667,119.844 418.219,123.591 420.981,126.354L492.545,197.917C498.297,203.67 498.297,212.997 492.545,218.75L420.981,290.313C418.219,293.076 416.667,296.823 416.667,300.73L416.667,401.935C416.667,410.071 410.071,416.667 401.935,416.667L300.73,416.667C296.823,416.667 293.076,418.219 290.313,420.981L218.75,492.545C212.997,498.297 203.67,498.297 197.917,492.545L126.354,420.981C123.591,418.219 119.844,416.667 115.937,416.667L14.731,416.667C6.595,416.667 0,410.071 0,401.935L0,300.73C0,296.823 -1.552,293.076 -4.315,290.313L-75.878,218.75C-81.631,212.997 -81.631,203.67 -75.878,197.917L-4.315,126.354ZM333.333,83.333C264.344,14.344 152.323,14.344 83.333,83.333C14.344,152.323 14.344,264.344 83.333,333.333C152.323,402.323 264.344,402.323 333.333,333.333C402.323,264.344 402.323,152.323 333.333,83.333ZM314.583,102.083C373.224,160.724 373.224,255.942 314.583,314.583C255.942,373.224 160.724,373.224 102.083,314.583C43.442,255.942 43.442,160.724 102.083,102.083C160.724,43.442 255.942,43.442 314.583,102.083Z"/>
        </g>
    </g>
</svg>
